<svg width="72" height="62" viewBox="0 0 72 62" fill="none" xmlns="http://www.w3.org/2000/svg">
<g id="Group">
<g id="Group_2">
<path id="Vector" d="M61.1382 14.2161C59.2723 9.80629 54.1526 7.73099 49.7427 9.59692C45.8551 11.2419 43.7931 15.2613 44.5856 19.236L21.1438 29.1549C18.8427 25.8186 14.522 24.4998 10.6344 26.1448C6.22452 28.0107 4.14922 33.1304 6.01515 37.5402C6.82536 39.455 8.22472 40.9837 10.0325 41.8607C9.42776 43.8269 9.52604 45.8377 10.3362 47.7525C12.2022 52.1624 17.3219 54.2377 21.7317 52.3717C25.6194 50.7268 27.6813 46.7073 26.8889 42.7326L50.2727 32.8383C52.5737 36.1746 56.8944 37.4934 60.7821 35.8484C65.1919 33.9825 67.2672 28.8628 65.4013 24.453C64.5911 22.5382 63.1917 21.0095 61.384 20.1325C62.0467 18.1417 61.9484 16.1309 61.1382 14.2161ZM58.7662 22.6768C60.3776 23.0896 61.6876 24.2456 62.326 25.7542C63.4799 28.4813 62.208 31.6192 59.4808 32.7732C56.8117 33.9025 53.7229 32.7466 52.511 30.044C52.1427 29.1737 51.1763 28.83 50.306 29.1983L24.2531 40.222C23.3827 40.5903 23.0391 41.5566 23.3248 42.3935C24.3961 45.0872 23.1576 48.1425 20.4305 49.2964C17.7034 50.4504 14.5655 49.1784 13.4115 46.4513C12.7732 44.9426 12.8557 43.1974 13.6814 41.7534C13.9648 41.2915 13.9424 40.7536 13.746 40.2894C13.5496 39.8252 13.1211 39.4592 12.6502 39.3164C11.0389 38.9036 9.72878 37.7476 9.09044 36.239C7.93651 33.5119 9.20846 30.374 11.9356 29.2201C14.6047 28.0907 17.6935 29.2466 18.9055 31.9492C19.2737 32.8195 20.2401 33.1632 21.1105 32.7949L47.2794 21.7221C48.1498 21.3538 48.4934 20.3875 48.2077 19.5506C47.1364 16.8569 48.3748 13.8016 51.102 12.6477C53.8291 11.4937 56.967 12.7657 58.1209 15.4928C58.7593 17.0015 58.6768 18.7467 57.8511 20.1907C57.5677 20.6526 57.59 21.1905 57.7865 21.6547C57.8668 22.168 58.2953 22.534 58.7662 22.6768Z" fill="#A0D6E7"/>
<path id="Vector_2" d="M30.6306 18.9153C31.5009 18.547 31.9026 17.5561 31.5343 16.6857L29.7911 12.566C29.4229 11.6956 28.432 11.294 27.5616 11.6622C26.6912 12.0305 26.2896 13.0214 26.6578 13.8918L28.401 18.0115C28.7693 18.8819 29.7602 19.2835 30.6306 18.9153Z" fill="#A0D6E7"/>
<path id="Vector_3" d="M36.8571 17.7858C37.1383 17.8036 37.3369 17.788 37.569 17.6898C38.1492 17.4443 38.5822 16.8506 38.5933 16.2302L38.7627 11.7801C38.7917 10.8785 38.0507 10.0974 37.1245 10.0104C36.2229 9.9814 35.4418 10.7224 35.3548 11.6486L35.1854 16.0987C35.1564 17.0003 35.8974 17.7814 36.8571 17.7858Z" fill="#A0D6E7"/>
<path id="Vector_4" d="M23.1343 22.703C23.6699 23.1604 24.3149 23.2296 24.8951 22.9841C25.1272 22.8859 25.3348 22.7296 25.4598 22.5399C26.0668 21.8726 26.0221 20.7969 25.3302 20.1319L22.0182 17.1549C21.3508 16.5479 20.2752 16.5926 19.6101 17.2844C19.0031 17.9518 19.0478 19.0275 19.7397 19.6925L23.1343 22.703Z" fill="#A0D6E7"/>
<path id="Vector_5" d="M40.8441 43.0534C39.9737 43.4216 39.572 44.4125 39.9403 45.2829L41.6835 49.4026C42.0517 50.273 43.0427 50.6747 43.913 50.3064C44.7834 49.9381 45.1851 48.9472 44.8168 48.0768L43.0736 43.9571C42.7053 43.0867 41.7144 42.6851 40.8441 43.0534Z" fill="#A0D6E7"/>
<path id="Vector_6" d="M34.6174 44.183C33.7158 44.154 32.9347 44.895 32.8477 45.8211L32.6783 50.2712C32.6493 51.1729 33.3903 51.954 34.3164 52.0409C34.5976 52.0588 34.7963 52.0432 35.0284 51.945C35.6086 51.6994 36.0415 51.1058 36.0527 50.4853L36.2221 46.0352C36.318 44.9685 35.577 44.1874 34.6174 44.183Z" fill="#A0D6E7"/>
<path id="Vector_7" d="M48.3403 39.2657C47.673 38.6587 46.5973 38.7034 45.9322 39.3953C45.3252 40.0626 45.3699 41.1383 46.0618 41.8033L49.3738 44.7803C49.9095 45.2378 50.5544 45.307 51.1347 45.0614C51.3668 44.9632 51.5743 44.807 51.6993 44.6173C52.3063 43.95 52.2616 42.8743 51.5697 42.2093L48.3403 39.2657Z" fill="#A0D6E7"/>
</g>
</g>
</svg>
