<svg width="52" height="49" viewBox="0 0 52 49" fill="none" xmlns="http://www.w3.org/2000/svg">
<g id="Group">
<path id="Vector" d="M26.578 23.8496C22.7578 26.389 24.3584 29.9467 22.9915 34.9359C21.1355 42.22 24.886 45.013 28.7165 43.6193C32.3906 42.2707 32.7027 37.7298 36.0939 35.4579C39.4852 33.186 44.593 34.2947 47.1565 31.5442C49.7199 28.7936 47.8013 24.7535 39.4432 24.1531C33.7146 23.798 30.4386 21.4422 26.578 23.8496Z" fill="#839AA9"/>
<path id="Vector_2" d="M15.2782 27.5448C19.3261 28.529 22.0571 31.3293 21.0582 33.628C20.0593 35.9266 15.9915 37.1017 11.7467 36.0308C7.69878 35.0466 4.96778 32.2463 5.96669 29.9477C6.96559 27.6491 11.0738 26.6058 15.2782 27.5448Z" fill="#839AA9"/>
<path id="Vector_3" d="M33.8744 15.4244C33.6732 19.2155 35.9349 22.1514 38.7966 22.0426C41.6583 21.9337 44.1005 18.7875 44.1452 15.0416C44.3464 11.2506 42.0848 8.31462 39.2231 8.42347C36.5179 8.48712 34.0756 11.6334 33.8744 15.4244Z" fill="#839AA9"/>
<path id="Vector_4" d="M18.587 16.108C21.7873 18.7728 22.7621 22.5113 20.6225 24.4216C18.4829 26.3318 14.0463 25.7471 10.846 23.0823C7.64565 20.4175 6.67088 16.679 8.81051 14.7687C10.9905 12.9904 15.2302 13.4884 18.587 16.108Z" fill="#839AA9"/>
<path id="Vector_5" d="M20.5753 14.8158C22.4888 18.283 26.1533 20.2394 29.0047 18.9849C31.6997 17.7757 32.4106 13.9809 30.4567 10.3818C28.5433 6.9145 24.8787 4.95812 22.0273 6.21259C19.3324 7.42185 18.6618 11.3485 20.5753 14.8158Z" fill="#839AA9"/>
</g>
</svg>
