<svg width="51" height="49" viewBox="0 0 51 49" fill="none" xmlns="http://www.w3.org/2000/svg">
<g id="Group">
<path id="Vector" d="M26.7415 23.9316C22.1645 24.1384 21.7029 28.0074 17.9645 31.574C12.6261 36.853 14.3983 41.1743 18.3943 41.9533C22.2332 42.6905 24.838 38.9646 28.9101 38.766C32.9823 38.5673 36.7833 42.1458 40.3934 41.1112C44.0034 40.0767 44.4411 35.6311 37.5965 30.8143C32.8763 27.5613 31.2851 23.8585 26.7415 23.9316Z" fill="#839AA9"/>
<path id="Vector_2" d="M15.1677 21.277C18.1257 24.2033 19.0215 28.0061 16.9832 29.4592C14.9449 30.9123 10.8583 29.824 7.77649 26.7222C4.81851 23.796 3.9227 19.9932 5.96101 18.54C7.99931 17.0869 12.0525 18.3089 15.1677 21.277Z" fill="#839AA9"/>
<path id="Vector_3" d="M37.3239 20.4767C35.2 23.6179 35.6243 27.2951 38.1297 28.6751C40.635 30.0552 44.345 28.6195 46.3117 25.4365C48.4355 22.2953 48.0113 18.6181 45.5059 17.2381C43.1577 15.8999 39.4477 17.3355 37.3239 20.4767Z" fill="#839AA9"/>
<path id="Vector_4" d="M23.8874 13.1917C25.2547 17.12 24.1644 20.8216 21.3497 21.3551C18.535 21.8886 15.0388 19.1042 13.6715 15.1758C12.3042 11.2475 13.3944 7.54591 16.2092 7.01239C18.9906 6.61257 22.3629 9.22148 23.8874 13.1917Z" fill="#839AA9"/>
<path id="Vector_5" d="M26.2544 13.1092C26.1072 17.0619 28.2365 20.6229 31.3229 21.0171C34.252 21.3694 36.8141 18.4876 36.9946 14.4012C37.1418 10.4484 35.0125 6.88745 31.9262 6.49323C28.997 6.14087 26.4017 9.15645 26.2544 13.1092Z" fill="#839AA9"/>
</g>
</svg>
