<?xml version="1.0" encoding="UTF-8"?>
<!DOCTYPE svg PUBLIC "-//W3C//DTD SVG 1.1//EN" "http://www.w3.org/Graphics/SVG/1.1/DTD/svg11.dtd">
<svg xmlns="http://www.w3.org/2000/svg" version="1.1" width="600px" height="600px" style="shape-rendering:geometricPrecision; text-rendering:geometricPrecision; image-rendering:optimizeQuality; fill-rule:evenodd; clip-rule:evenodd" xmlns:xlink="http://www.w3.org/1999/xlink">
<g><path style="opacity:1" fill="#f6c80e" d="M 360.5,159.5 C 364.216,161.405 368.216,162.739 372.5,163.5C 373.78,164.931 375.447,165.598 377.5,165.5C 378.492,165.328 379.158,165.662 379.5,166.5C 384.516,169.674 389.849,172.341 395.5,174.5C 396.492,174.328 397.158,174.662 397.5,175.5C 397.973,176.906 398.973,177.573 400.5,177.5C 400.973,178.906 401.973,179.573 403.5,179.5C 403.973,180.906 404.973,181.573 406.5,181.5C 406.973,182.906 407.973,183.573 409.5,183.5C 409.973,184.906 410.973,185.573 412.5,185.5C 413.5,185.833 414.167,186.5 414.5,187.5C 414.973,188.906 415.973,189.573 417.5,189.5C 418.833,190.167 419.833,191.167 420.5,192.5C 425.167,197.833 430.167,202.833 435.5,207.5C 436.419,210.089 438.086,212.089 440.5,213.5C 440.738,215.404 441.738,216.738 443.5,217.5C 443.427,219.027 444.094,220.027 445.5,220.5C 445.738,222.404 446.738,223.738 448.5,224.5C 449.338,224.842 449.672,225.508 449.5,226.5C 449.427,228.027 450.094,229.027 451.5,229.5C 452.338,229.842 452.672,230.508 452.5,231.5C 452.427,233.027 453.094,234.027 454.5,234.5C 456.008,236.181 457.008,238.181 457.5,240.5C 457.402,242.553 458.069,244.22 459.5,245.5C 468.148,263.57 472.148,282.737 471.5,303C 472.143,320.607 469.143,337.44 462.5,353.5C 461.069,354.78 460.402,356.447 460.5,358.5C 460.672,359.492 460.338,360.158 459.5,360.5C 457.375,363.088 456.042,366.088 455.5,369.5C 453.75,370.659 452.75,372.326 452.5,374.5C 452.672,375.492 452.338,376.158 451.5,376.5C 450.094,376.973 449.427,377.973 449.5,379.5C 449.672,380.492 449.338,381.158 448.5,381.5C 447.094,381.973 446.427,382.973 446.5,384.5C 445.974,386.23 444.974,387.564 443.5,388.5C 442.094,388.973 441.427,389.973 441.5,391.5C 441.5,392.167 441.167,392.5 440.5,392.5C 438.413,393.585 437.08,395.251 436.5,397.5C 436.5,398.167 436.167,398.5 435.5,398.5C 430.167,403.167 425.167,408.167 420.5,413.5C 419.833,414.833 418.833,415.833 417.5,416.5C 415.973,416.427 414.973,417.094 414.5,418.5C 414.167,419.5 413.5,420.167 412.5,420.5C 410.973,420.427 409.973,421.094 409.5,422.5C 407.973,422.427 406.973,423.094 406.5,424.5C 404.973,424.427 403.973,425.094 403.5,426.5C 401.973,426.427 400.973,427.094 400.5,428.5C 398.973,428.427 397.973,429.094 397.5,430.5C 397.158,431.338 396.492,431.672 395.5,431.5C 393.326,431.75 391.659,432.75 390.5,434.5C 389.486,435.674 388.153,436.34 386.5,436.5C 383.759,436.707 381.426,437.707 379.5,439.5C 379.158,440.338 378.492,440.672 377.5,440.5C 375.447,440.402 373.78,441.069 372.5,442.5C 368.216,443.261 364.216,444.595 360.5,446.5C 345.066,451.8 329.066,454.134 312.5,453.5C 295.934,454.134 279.934,451.8 264.5,446.5C 261.495,444.723 258.162,443.723 254.5,443.5C 247.421,441.258 240.754,438.258 234.5,434.5C 233.341,432.75 231.674,431.75 229.5,431.5C 228.508,431.672 227.842,431.338 227.5,430.5C 227.027,429.094 226.027,428.427 224.5,428.5C 224.027,427.094 223.027,426.427 221.5,426.5C 221.027,425.094 220.027,424.427 218.5,424.5C 218.027,423.094 217.027,422.427 215.5,422.5C 214.415,420.413 212.749,419.08 210.5,418.5C 209.415,416.413 207.749,415.08 205.5,414.5C 204.833,414.5 204.5,414.167 204.5,413.5C 199.833,408.167 194.833,403.167 189.5,398.5C 188.5,398.167 187.833,397.5 187.5,396.5C 187.262,394.596 186.262,393.262 184.5,392.5C 183.833,392.5 183.5,392.167 183.5,391.5C 183.573,389.973 182.906,388.973 181.5,388.5C 181.573,386.973 180.906,385.973 179.5,385.5C 178.833,385.5 178.5,385.167 178.5,384.5C 178.573,382.973 177.906,381.973 176.5,381.5C 175.662,381.158 175.328,380.492 175.5,379.5C 175.573,377.973 174.906,376.973 173.5,376.5C 172.662,376.158 172.328,375.492 172.5,374.5C 170.674,369.516 168.341,364.849 165.5,360.5C 164.662,360.158 164.328,359.492 164.5,358.5C 164.598,356.447 163.931,354.78 162.5,353.5C 155.857,337.44 152.857,320.607 153.5,303C 152.857,285.393 155.857,268.56 162.5,252.5C 163.931,251.22 164.598,249.553 164.5,247.5C 164.328,246.508 164.662,245.842 165.5,245.5C 166.931,244.22 167.598,242.553 167.5,240.5C 167.328,239.508 167.662,238.842 168.5,238.5C 170.588,236.664 171.921,234.331 172.5,231.5C 172.328,230.508 172.662,229.842 173.5,229.5C 174.906,229.027 175.573,228.027 175.5,226.5C 177.326,224.853 178.66,222.853 179.5,220.5C 180.906,220.027 181.573,219.027 181.5,217.5C 183.262,216.738 184.262,215.404 184.5,213.5C 186.914,212.089 188.581,210.089 189.5,207.5C 194.833,202.833 199.833,197.833 204.5,192.5C 204.5,191.833 204.833,191.5 205.5,191.5C 207.749,190.92 209.415,189.587 210.5,187.5C 212.749,186.92 214.415,185.587 215.5,183.5C 217.027,183.573 218.027,182.906 218.5,181.5C 220.027,181.573 221.027,180.906 221.5,179.5C 223.027,179.573 224.027,178.906 224.5,177.5C 226.027,177.573 227.027,176.906 227.5,175.5C 227.842,174.662 228.508,174.328 229.5,174.5C 231.674,174.25 233.341,173.25 234.5,171.5C 236.181,169.992 238.181,168.992 240.5,168.5C 242.553,168.598 244.22,167.931 245.5,166.5C 245.842,165.662 246.508,165.328 247.5,165.5C 249.553,165.598 251.22,164.931 252.5,163.5C 252.842,162.662 253.508,162.328 254.5,162.5C 258.162,162.277 261.495,161.277 264.5,159.5C 266.515,158.076 268.848,157.41 271.5,157.5C 274.781,157.58 277.781,156.913 280.5,155.5C 284.619,154.262 288.953,153.429 293.5,153C 312.312,151.652 330.978,152.652 349.5,156C 353.427,156.724 357.094,157.891 360.5,159.5 Z"/></g>
<g><path style="opacity:0.988" fill="#f2c81a" d="M 280.5,155.5 C 277.781,156.913 274.781,157.58 271.5,157.5C 274.219,156.087 277.219,155.42 280.5,155.5 Z"/></g>
<g><path style="opacity:0.278" fill="#f0c91e" d="M 360.5,159.5 C 364.915,159.861 368.915,161.194 372.5,163.5C 368.216,162.739 364.216,161.405 360.5,159.5 Z"/></g>
<g><path style="opacity:0.957" fill="#f2c91b" d="M 264.5,159.5 C 261.495,161.277 258.162,162.277 254.5,162.5C 257.505,160.723 260.838,159.723 264.5,159.5 Z"/></g>
<g><path style="opacity:0.716" fill="#f1c91d" d="M 252.5,163.5 C 251.22,164.931 249.553,165.598 247.5,165.5C 248.78,164.069 250.447,163.402 252.5,163.5 Z"/></g>
<g><path style="opacity:0.733" fill="#f1c91d" d="M 372.5,163.5 C 374.553,163.402 376.22,164.069 377.5,165.5C 375.447,165.598 373.78,164.931 372.5,163.5 Z"/></g>
<g><path style="opacity:0.608" fill="#f1c91d" d="M 245.5,166.5 C 244.22,167.931 242.553,168.598 240.5,168.5C 241.78,167.069 243.447,166.402 245.5,166.5 Z"/></g>
<g><path style="opacity:0.671" fill="#f1c91d" d="M 379.5,166.5 C 385.419,168.126 390.753,170.793 395.5,174.5C 389.849,172.341 384.516,169.674 379.5,166.5 Z"/></g>
<g><path style="opacity:0.592" fill="#f0c91e" d="M 234.5,171.5 C 233.341,173.25 231.674,174.25 229.5,174.5C 230.659,172.75 232.326,171.75 234.5,171.5 Z"/></g>
<g><path style="opacity:0.894" fill="#f1c91c" d="M 227.5,175.5 C 227.027,176.906 226.027,177.573 224.5,177.5C 224.973,176.094 225.973,175.427 227.5,175.5 Z"/></g>
<g><path style="opacity:0.498" fill="#f0c91e" d="M 397.5,175.5 C 399.027,175.427 400.027,176.094 400.5,177.5C 398.973,177.573 397.973,176.906 397.5,175.5 Z"/></g>
<g><path style="opacity:0.929" fill="#f2c91b" d="M 224.5,177.5 C 224.027,178.906 223.027,179.573 221.5,179.5C 221.973,178.094 222.973,177.427 224.5,177.5 Z"/></g>
<g><path style="opacity:0.573" fill="#f1c91d" d="M 400.5,177.5 C 402.027,177.427 403.027,178.094 403.5,179.5C 401.973,179.573 400.973,178.906 400.5,177.5 Z"/></g>
<g><path style="opacity:0.933" fill="#f2c91b" d="M 221.5,179.5 C 221.027,180.906 220.027,181.573 218.5,181.5C 218.973,180.094 219.973,179.427 221.5,179.5 Z"/></g>
<g><path style="opacity:0.561" fill="#f1c91d" d="M 403.5,179.5 C 405.027,179.427 406.027,180.094 406.5,181.5C 404.973,181.573 403.973,180.906 403.5,179.5 Z"/></g>
<g><path style="opacity:0.902" fill="#f1c91b" d="M 218.5,181.5 C 218.027,182.906 217.027,183.573 215.5,183.5C 215.973,182.094 216.973,181.427 218.5,181.5 Z"/></g>
<g><path style="opacity:0.478" fill="#f0c91e" d="M 406.5,181.5 C 408.027,181.427 409.027,182.094 409.5,183.5C 407.973,183.573 406.973,182.906 406.5,181.5 Z"/></g>
<g><path style="opacity:0.824" fill="#f1c81c" d="M 215.5,183.5 C 214.415,185.587 212.749,186.92 210.5,187.5C 211.585,185.413 213.251,184.08 215.5,183.5 Z"/></g>
<g><path style="opacity:0.286" fill="#f0c91f" d="M 409.5,183.5 C 411.027,183.427 412.027,184.094 412.5,185.5C 410.973,185.573 409.973,184.906 409.5,183.5 Z"/></g>
<g><path style="opacity:0.173" fill="#f0c91f" d="M 414.5,187.5 C 416.027,187.427 417.027,188.094 417.5,189.5C 415.973,189.573 414.973,188.906 414.5,187.5 Z"/></g>
<g><path style="opacity:0.969" fill="#f2c81a" d="M 210.5,187.5 C 209.415,189.587 207.749,190.92 205.5,191.5C 206.585,189.413 208.251,188.08 210.5,187.5 Z"/></g>
<g><path style="opacity:0.078" fill="#f1c91d" d="M 420.5,192.5 C 426.5,196.5 431.5,201.5 435.5,207.5C 430.167,202.833 425.167,197.833 420.5,192.5 Z"/></g>
<g><path style="opacity:0.918" fill="#f1c91c" d="M 204.5,192.5 C 199.833,197.833 194.833,202.833 189.5,207.5C 193.5,201.5 198.5,196.5 204.5,192.5 Z"/></g>
<g><path style="opacity:0.898" fill="#f1c81c" d="M 189.5,207.5 C 188.581,210.089 186.914,212.089 184.5,213.5C 185.419,210.911 187.086,208.911 189.5,207.5 Z"/></g>
<g><path style="opacity:0.816" fill="#f1c81c" d="M 435.5,207.5 C 437.914,208.911 439.581,210.911 440.5,213.5C 438.086,212.089 436.419,210.089 435.5,207.5 Z"/></g>
<g><path style="opacity:0.945" fill="#f2c91b" d="M 440.5,213.5 C 442.262,214.262 443.262,215.596 443.5,217.5C 441.738,216.738 440.738,215.404 440.5,213.5 Z"/></g>
<g><path style="opacity:0.867" fill="#f1c91c" d="M 184.5,213.5 C 184.262,215.404 183.262,216.738 181.5,217.5C 181.738,215.596 182.738,214.262 184.5,213.5 Z"/></g>
<g><path style="opacity:0.824" fill="#f1c91c" d="M 181.5,217.5 C 181.573,219.027 180.906,220.027 179.5,220.5C 179.427,218.973 180.094,217.973 181.5,217.5 Z"/></g>
<g><path style="opacity:0.82" fill="#f1c91b" d="M 443.5,217.5 C 444.906,217.973 445.573,218.973 445.5,220.5C 444.094,220.027 443.427,219.027 443.5,217.5 Z"/></g>
<g><path style="opacity:0.839" fill="#f1c81c" d="M 445.5,220.5 C 447.262,221.262 448.262,222.596 448.5,224.5C 446.738,223.738 445.738,222.404 445.5,220.5 Z"/></g>
<g><path style="opacity:0.816" fill="#f1c91c" d="M 179.5,220.5 C 178.66,222.853 177.326,224.853 175.5,226.5C 175.845,223.802 177.178,221.802 179.5,220.5 Z"/></g>
<g><path style="opacity:0.722" fill="#f1c91d" d="M 175.5,226.5 C 175.573,228.027 174.906,229.027 173.5,229.5C 173.427,227.973 174.094,226.973 175.5,226.5 Z"/></g>
<g><path style="opacity:0.722" fill="#f1c91d" d="M 449.5,226.5 C 450.906,226.973 451.573,227.973 451.5,229.5C 450.094,229.027 449.427,228.027 449.5,226.5 Z"/></g>
<g><path style="opacity:0.608" fill="#f0c91e" d="M 452.5,231.5 C 453.906,231.973 454.573,232.973 454.5,234.5C 453.094,234.027 452.427,233.027 452.5,231.5 Z"/></g>
<g><path style="opacity:0.663" fill="#f1c91d" d="M 172.5,231.5 C 171.921,234.331 170.588,236.664 168.5,238.5C 169.079,235.669 170.412,233.336 172.5,231.5 Z"/></g>
<g><path style="opacity:0.639" fill="#f1c91e" d="M 457.5,240.5 C 458.931,241.78 459.598,243.447 459.5,245.5C 458.069,244.22 457.402,242.553 457.5,240.5 Z"/></g>
<g><path style="opacity:0.724" fill="#f1c91d" d="M 167.5,240.5 C 167.598,242.553 166.931,244.22 165.5,245.5C 165.402,243.447 166.069,241.78 167.5,240.5 Z"/></g>
<g><path style="opacity:0.259" fill="#f0c91f" d="M 164.5,247.5 C 164.598,249.553 163.931,251.22 162.5,252.5C 162.402,250.447 163.069,248.78 164.5,247.5 Z"/></g>
<g><path style="opacity:0.682" fill="#f0c91e" d="M 162.5,353.5 C 163.931,354.78 164.598,356.447 164.5,358.5C 163.069,357.22 162.402,355.553 162.5,353.5 Z"/></g>
<g><path style="opacity:0.678" fill="#f1c91d" d="M 462.5,353.5 C 462.598,355.553 461.931,357.22 460.5,358.5C 460.402,356.447 461.069,354.78 462.5,353.5 Z"/></g>
<g><path style="opacity:0.724" fill="#f1c91d" d="M 165.5,360.5 C 168.341,364.849 170.674,369.516 172.5,374.5C 169.126,370.419 166.793,365.753 165.5,360.5 Z"/></g>
<g><path style="opacity:0.678" fill="#f1c91d" d="M 459.5,360.5 C 458.958,363.912 457.625,366.912 455.5,369.5C 456.042,366.088 457.375,363.088 459.5,360.5 Z"/></g>
<g><path style="opacity:0.608" fill="#f1c91d" d="M 455.5,369.5 C 455.25,371.674 454.25,373.341 452.5,374.5C 452.75,372.326 453.75,370.659 455.5,369.5 Z"/></g>
<g><path style="opacity:0.565" fill="#f1c91e" d="M 173.5,376.5 C 174.906,376.973 175.573,377.973 175.5,379.5C 174.094,379.027 173.427,378.027 173.5,376.5 Z"/></g>
<g><path style="opacity:0.561" fill="#f1c91d" d="M 451.5,376.5 C 451.573,378.027 450.906,379.027 449.5,379.5C 449.427,377.973 450.094,376.973 451.5,376.5 Z"/></g>
<g><path style="opacity:0.369" fill="#f0c91f" d="M 176.5,381.5 C 177.906,381.973 178.573,382.973 178.5,384.5C 177.094,384.027 176.427,383.027 176.5,381.5 Z"/></g>
<g><path style="opacity:0.369" fill="#f0c91f" d="M 448.5,381.5 C 448.573,383.027 447.906,384.027 446.5,384.5C 446.427,382.973 447.094,381.973 448.5,381.5 Z"/></g>
<g><path style="opacity:0.557" fill="#f1c91d" d="M 179.5,385.5 C 180.906,385.973 181.573,386.973 181.5,388.5C 180.094,388.027 179.427,387.027 179.5,385.5 Z"/></g>
<g><path style="opacity:0.137" fill="#f0c91f" d="M 443.5,388.5 C 443.573,390.027 442.906,391.027 441.5,391.5C 441.427,389.973 442.094,388.973 443.5,388.5 Z"/></g>
<g><path style="opacity:0.376" fill="#f0c91f" d="M 181.5,388.5 C 182.906,388.973 183.573,389.973 183.5,391.5C 182.094,391.027 181.427,390.027 181.5,388.5 Z"/></g>
<g><path style="opacity:0.055" fill="#f0c91f" d="M 184.5,392.5 C 186.262,393.262 187.262,394.596 187.5,396.5C 185.738,395.738 184.738,394.404 184.5,392.5 Z"/></g>
<g><path style="opacity:0.412" fill="#f1c91d" d="M 440.5,392.5 C 439.92,394.749 438.587,396.415 436.5,397.5C 437.08,395.251 438.413,393.585 440.5,392.5 Z"/></g>
<g><path style="opacity:0.024" fill="#f1c91e" d="M 189.5,398.5 C 194.833,403.167 199.833,408.167 204.5,413.5C 198.5,409.5 193.5,404.5 189.5,398.5 Z"/></g>
<g><path style="opacity:0.388" fill="#f0c91e" d="M 435.5,398.5 C 431.5,404.5 426.5,409.5 420.5,413.5C 425.167,408.167 430.167,403.167 435.5,398.5 Z"/></g>
<g><path style="opacity:0.969" fill="#f2c81b" d="M 205.5,414.5 C 207.749,415.08 209.415,416.413 210.5,418.5C 208.251,417.92 206.585,416.587 205.5,414.5 Z"/></g>
<g><path style="opacity:0.169" fill="#f0c91f" d="M 417.5,416.5 C 417.027,417.906 416.027,418.573 414.5,418.5C 414.973,417.094 415.973,416.427 417.5,416.5 Z"/></g>
<g><path style="opacity:0.678" fill="#f1c81d" d="M 210.5,418.5 C 212.749,419.08 214.415,420.413 215.5,422.5C 213.251,421.92 211.585,420.587 210.5,418.5 Z"/></g>
<g><path style="opacity:0.024" fill="#f0c920" d="M 412.5,420.5 C 412.027,421.906 411.027,422.573 409.5,422.5C 409.973,421.094 410.973,420.427 412.5,420.5 Z"/></g>
<g><path style="opacity:0.765" fill="#f1c91d" d="M 215.5,422.5 C 217.027,422.427 218.027,423.094 218.5,424.5C 216.973,424.573 215.973,423.906 215.5,422.5 Z"/></g>
<g><path style="opacity:0.204" fill="#f0c91f" d="M 409.5,422.5 C 409.027,423.906 408.027,424.573 406.5,424.5C 406.973,423.094 407.973,422.427 409.5,422.5 Z"/></g>
<g><path style="opacity:0.796" fill="#f1c91c" d="M 218.5,424.5 C 220.027,424.427 221.027,425.094 221.5,426.5C 219.973,426.573 218.973,425.906 218.5,424.5 Z"/></g>
<g><path style="opacity:0.278" fill="#f1c91e" d="M 406.5,424.5 C 406.027,425.906 405.027,426.573 403.5,426.5C 403.973,425.094 404.973,424.427 406.5,424.5 Z"/></g>
<g><path style="opacity:0.765" fill="#f1c91c" d="M 221.5,426.5 C 223.027,426.427 224.027,427.094 224.5,428.5C 222.973,428.573 221.973,427.906 221.5,426.5 Z"/></g>
<g><path style="opacity:0.247" fill="#f1c91e" d="M 403.5,426.5 C 403.027,427.906 402.027,428.573 400.5,428.5C 400.973,427.094 401.973,426.427 403.5,426.5 Z"/></g>
<g><path style="opacity:0.675" fill="#f0c91e" d="M 224.5,428.5 C 226.027,428.427 227.027,429.094 227.5,430.5C 225.973,430.573 224.973,429.906 224.5,428.5 Z"/></g>
<g><path style="opacity:0.114" fill="#f0c920" d="M 400.5,428.5 C 400.027,429.906 399.027,430.573 397.5,430.5C 397.973,429.094 398.973,428.427 400.5,428.5 Z"/></g>
<g><path style="opacity:0.592" fill="#f0c91e" d="M 229.5,431.5 C 231.674,431.75 233.341,432.75 234.5,434.5C 232.326,434.25 230.659,433.25 229.5,431.5 Z"/></g>
<g><path style="opacity:0.588" fill="#f0c91e" d="M 395.5,431.5 C 394.341,433.25 392.674,434.25 390.5,434.5C 391.659,432.75 393.326,431.75 395.5,431.5 Z"/></g>
<g><path style="opacity:0.71" fill="#f1c91d" d="M 386.5,436.5 C 384.574,438.293 382.241,439.293 379.5,439.5C 381.426,437.707 383.759,436.707 386.5,436.5 Z"/></g>
<g><path style="opacity:0.714" fill="#f1c91d" d="M 377.5,440.5 C 376.22,441.931 374.553,442.598 372.5,442.5C 373.78,441.069 375.447,440.402 377.5,440.5 Z"/></g>
<g><path style="opacity:0.953" fill="#f1c91c" d="M 254.5,443.5 C 258.162,443.723 261.495,444.723 264.5,446.5C 260.838,446.277 257.505,445.277 254.5,443.5 Z"/></g>
<g><path style="opacity:0.294" fill="#f0c91e" d="M 372.5,442.5 C 368.915,444.806 364.915,446.139 360.5,446.5C 364.216,444.595 368.216,443.261 372.5,442.5 Z"/></g>
</svg>
